<svg xmlns="http://www.w3.org/2000/svg" xml:space="preserve" viewBox="0 0 2689.504 1456.991"><path d="M221.453 627.219c-107.505 0-161.258 41.199-161.258 123.6v71.326c0 23.627 7.237 45.335 21.71 65.123 14.471 19.788 51.39 58.478 110.753 116.07 30.716 31.011 46.072 58.035 46.072 81.072v75.313c0 14.472-8.417 21.707-25.251 21.707-17.426 0-26.137-7.236-26.137-21.707V1013.97H60.195v144.865c0 76.79 51.981 115.184 155.942 115.184 107.8 0 161.7-42.234 161.7-126.702v-81.072c0-28.058-7.974-53.162-23.923-75.312-15.653-22.151-52.571-61.138-110.754-116.957-31.306-31.307-46.959-58.773-46.959-82.4l-2.658-41.2c0-24.514 8.123-36.772 24.367-36.772 13.881 0 20.82 6.351 20.82 19.051v116.955h127.147V739.744c0-75.017-48.142-112.525-144.424-112.525zm188.281 5.758v635.283h139.551v-235.684l53.604 235.684h153.283L653.836 922.709l85.945-289.732H610.42l-61.135 211.761V632.977h-139.55zm363.715 0v635.283H913V782.598c-2.149-1.31-4.148-2.413-4.148-4.934 0-1.247.052-1.977.052-3.225.022-.847.094-1.342.094-2.189 0-2.8-1.085-4.236-1.414-7.037-.424-3.555 0-5.742-1.6-8.943-.988-2.001-2.659-2.448-4.707-3.295-6.52-2.707-10.074-4.614-16.476-7.627-1.813-.848-2.73-1.6-4.614-2.26-3.233-1.137-5.852-1.387-8.537-1.85.447-2.706.157-4.223.91-6.812.895-3.131 2.26-4.612 3.295-7.719 1.319-3.978 2.732-5.957 4.71-9.7 1.059-2 2.917-2.751 2.917-5.01v-4.78c2.59 0 4.237-.094 6.497-1.319 1.482-.8 2.164-1.976 3.859-1.976 1.765 0 2.518 1.178 4.236 1.601l6.592-2.543 6.307 3.295c.565-.235.894-.47 1.506-.47.253 0 .32.3.521.386v-73.214H773.45zm653.448 0v254.359c.468.01.879.02 1.418-.11 2.26-.564 3.271-1.882 5.578-1.882h1.931c.87 0 1.317.564 2.188.564 1.576 0 2.543-.541 3.861-1.412 2.519-.4 4.424.163 6.307-1.508 1.035-.918 1.06-1.905 1.695-3.105 1.507-2.802 1.929-4.637 3.482-7.438 1.554-2.777 4.003-3.107 7.063-4.049 2.048-.612 2.942-2.166 5.084-2.166 3.225 0 5.06.471 8.285.471 2.236 0 3.435-1.012 5.272-2.26 1.505-1.035 2.613-1.2 4.142-2.26 1.46-1.012 2.001-2.54 3.766-2.54 4.896 0 7.578 1.6 12.474 1.6 3.93 0 6.05-1.223 9.98-1.223 2.236 0 3.509.705 5.509 1.693 1.106.541 2 .707 2.73 1.695 1.694 2.26 2 4.072 2.541 6.873.495 2.519 1.2 3.837 1.506 6.403.377 3.035 1.013 6.683 4.049 6.683 2.871 0 4.33-2.754 4.894-5.554.754-3.672.848-5.908 2.543-9.32 1.225-2.449 1.978-3.791 3.768-5.839.659-.753.706-1.6 1.6-1.976 3.225-1.389 5.365-.636 8.85-1.319 2.094 1.2 3.929.683 5.741 2.26 2.918 2.542 3.579 5.061 6.78 7.25 2 1.365 3.623 1.317 6.048 1.317h1.743c2.659 0 4.118-.541 6.707-1.13 2.048-.47 4.19-1.341 5.367.378 3.366 4.919 6.426 6.66 9.603 11.767 1.366 2.189 2.188 3.343 3.86 5.274 1.812 2.094 4.095 2.73 4.613 5.46.494 2.636.848 4.213 2.26 6.497 1.177 1.883 2.26 3.482 4.472 3.482 3.53 0 4.801-3.576 8.33-3.576 1.178 0 1.861.281 3.038.281 4.283 0 6.685-.094 10.968-.094 2.237 0 3.249-1.693 5.485-1.693 2.118 0 2.918 1.622 4.707 2.729 4.707 2.942 7.015 5.296 12.24 7.25 1.907.705 2.59 2.447 4.637 2.447h2.023c.895 0 1.39-.21 2.283-.281.675.086 1.067.59 1.594.914l-53.596-276.912h-179.42zm298.591 0-55.377 329.603-8.49-43.863c-.239.473-.286.982-.572 1.554-1.084 2.166-1.625 3.438-3.108 5.368-1.2 1.553-2.54 2.376-2.54 4.33 0 1.459.466 2.282.466 3.742v2.002l-.285 2.07c.988 1.648 2.918 2.049 2.918 3.955 0 3.295-3.882 4.518-7.178 4.518h-2.213c-1.67 0-2.518-.94-4.19-.94h-1.105l-3.767 12.897c.541 1.341 1.296 1.93 2.45 2.824 1.294.989 1.694 2.142 3.2 2.73 2.472.989 4.143 1.319 6.026 3.202 1.553 1.553 3.012 1.814 4.613 3.297 2.59 2.4 3.248 4.729 6.59 6.4 1.577.777 2.378 1.883 4.142 1.883 1.977 0 3.06-.752 5.037-.752 1.978 0 2.942 1.129 4.66 2.07 2.33 1.294 4.028 2.708 4.237 5.367.188 2.378 1.177 3.553 2.072 5.743.683 1.647 1.13 3.578 2.918 3.578 1.884 0 2.354-2.354 4.236-2.354.847 0 1.318.188 2.165.188 1.39 0 2.096-.4 3.39-1.035.989 1.506 1.06 3.671 2.871 3.671 1.719 0 1.672-2.26 3.155-3.107.518.918 1.32 1.131 1.789 2.072.7 1.412.355 2.494.752 4.047.447 1.671 1.838 2.73 3.58 2.73 1.063 0 1.123-1.388 1.222-2.447.141-1.412.025-2.611 1.131-3.482 2.33 3.106 3.389 6.871 7.295 6.871 1.718 0 2.85.189 4.379-.564.964-.472 1.082-1.79 2.164-1.79 1.883 0 3.202.472 4.52 1.79 1.389 1.388 1.529 2.919 3.2 3.955 1.789 1.106 3.297 1.435 4.427 3.2.8 1.248.587 3.202 2.07 3.202.567 0 .517-.777.658-1.318.284-1.013.566-1.719 1.412-2.354.896 1.2 1.697 2.164 3.203 2.164 1.224 0 .66-2.54 1.883-2.54.78 0 .794.964 1.035 1.694.589 1.695.47 2.918 1.506 4.424.87 1.294 2.354 1.225 3.201 2.543.564.87.161 1.6 0 2.635h-.011c-.848 5.508-2.683 8.687-6.871 12.334-2.495 2.166-3.932 3.39-6.78 5.084-2.095 1.248-4.52 1.906-4.52 4.33 0 1.365.565 2.12.565 3.484 0 1.201.091 2.002-.377 3.108-.658 1.506-2.166 1.93-2.166 3.555v2.023c0 3.766-3.578 5.201-3.578 8.967 0 2.024.706 3.225 1.883 4.85.635.87 1.508 1.247 1.508 2.33 0 .706-.098 1.129-.098 1.835 0 2.566 4.897 1.835 4.897 4.4 0 1.766-1.977 2.238-2.167 4.003l.848 4.847c.136.589.279.944.469 1.508l.377.094c.494-.682.942-1.153 1.789-1.318.117.73.07 1.153 0 1.882h1.506c0 .188.097.283.097.471 0 .777-1.035.92-1.035 1.695 0 .942.729 1.27 1.223 2.07.541.895.636 2.167 1.695 2.167.706 0 .898-.66 1.319-1.225 1.247 2.166 1.905 4.119 4.33 4.707 1.588.38 2.68.142 4.117.717l37.697-185.035v216.203c.207.355.265.757.65 1.068.989.8 2.143.282 3.108 1.13-1.553 2.07-3.39 3.154-3.39 5.743 0 .8.284 1.27.284 2.07 0 .508-.366.742-.652 1.036v129.377h124.486V632.977h-186.95zm313.655 0-104.551 635.283h138.22l23.479-170.56h62.465l23.48 170.56h138.221l-104.55-635.283h-176.764zm303.464 0v635.283h136.006v-233.912c75.608 1.181 124.93-6.792 147.967-23.922 23.037-17.426 34.555-46.96 34.555-88.604V745.504c0-45.483-14.177-75.608-42.53-90.375-28.057-14.767-71.176-22.152-129.359-22.152h-146.639zm136.006 90.818c3.877 0 7.51.175 10.903.525 3.391.351 6.542.877 9.449 1.578 17.443 4.21 26.164 14.732 26.164 31.567V909.86c0 16.835-8.72 27.358-26.164 31.567-2.907.701-6.058 1.227-9.45 1.578-3.391.35-7.025.525-10.902.525V723.795zm-351.31 96.135 19.935 189.61h-38.986l19.05-189.61zM1599.09 1096.8c-1.39 0-1.954 1.06-3.295 1.413-1.883.494-3.341.213-4.8 1.508-1.131 1.012-.895 2.306-1.977 3.388-1.79 1.789-2.731 2.99-4.99 4.05-.813.378-1.554.534-2.315.736l37.451 160.365h96.135l22.73-111.572c-1.426-1.445-2.531-2.753-4.213-4.434-.894-.894-1.27-2.072-2.54-2.072-1.742 0-2.685.47-4.426.47-.828 0-.657-1.176-1.035-1.882-.517-.941-1.365-1.319-2.448-1.319-.753 0-1.132.47-1.885.47-2.447 0-3.575-1.788-6.023-1.788-.73 0-1.06.564-1.79.564-.8 0-1.082-.845-1.882-.845-1.625 1.294-3.156.894-4.615 2.353-.989.989-1.27 2.447-2.682 2.447l-6.543-.847-5.603.283c-1.625-.022-2.542-.094-4.166-.094-5.767 0-7.956-4.26-13.016-7.06-2.708-1.483-4.778-.566-7.814-1.131-4.707-.894-6.474-3.695-10.639-6.026-2.543-1.411-3.554-2.94-5.365-5.271-1.154-1.506-2.92-1.976-2.92-3.86 0-2.094 1.53-3.06 3.107-4.425 1.93-1.671 3.319-2.284 5.555-3.578-.59-1.2-1.694-1.2-2.447-2.26-.26-.377-.286-.942-.754-.942-1.39 0-1.954 1.225-3.342 1.225-2.213 0-3.602-.306-5.508-1.412-.847-.494-1.083-1.506-2.072-1.506-1.577 0-2.33 1.035-3.906 1.035-2.025 0-3.672-.494-4.66-2.26-.919-1.647-.52-3.152-1.79-4.517-1.224-1.297-2.754-.73-4.425-1.319-2.425-.87-3.931-1.271-6.12-2.636-1.459-.895-1.318-2.59-2.824-3.39-1.389-.73-2.447-.352-3.953-.847-.895 2.19-1.484 4.707-3.861 4.707-2.142 0-3.367-1.01-4.897-2.54-2-.66-2.989-1.532-4.613-2.92-1.083-.918-1.412-2.26-2.824-2.26zm-69.858 30.223c-.89 1.79-.492 3.131-.941 5.084-.211 1.013-.848 1.505-.848 2.541 0 4.002 3.813 5.369 7.438 7.063.326.152.654.224.996.32v-9.394c-.926-.065-1.797-.185-2.502-1-1.6-1.837-1.79-4.025-4.143-4.614zm-86.332 10.165c-.07.47 0 .73 0 1.2 0 1.366.565 2.095.565 3.46 0 3.72-3.532 6.261-7.25 6.261-3.483 0-5.46-.116-8.943-.187-.147.036-.235.063-.375.098v120.24h108.98v-124.461c-2.96-.139-4.728-1.526-7.82-1.526-2 0-3.084.848-5.086.848-.87 0-1.34-.283-2.211-.283-1.436 0-1.859 1.695-3.295 1.695-1.2 0-.99-2.166-2.19-2.166h-1.93c-2.847 0-3.86-2.918-6.708-2.918-1.883 0-2.777.988-4.424 1.883-.87 1.765-1.435 2.66-1.977 4.52-.353 1.27-.164 2.424-1.224 3.2-.918-1.223-1.013-2.165-1.602-3.577-3.035.494-4.495 1.976-7.531 1.976-1.035 0-1.6-.283-2.637-.283-1.224 0-1.882.378-3.105.47-1.036.613-1.908.942-3.11.942-2.752 0-3.834-2.07-6.023-3.765-2.284-1.766-4.073-1.954-6.592-3.295-1.224-.66-1.717-1.555-3.012-2.073-.517 1.295-.869 2.073-1.318 3.39-.259.754-.518 1.6-1.318 1.6-2.848 0-4.306-1.624-7.155-1.412-1.506.094-2.87-.61-3.294-2.07-.353-1.271-.378-2.92-1.696-2.92-1.529 0-1.764 2.166-3.295 2.166-2.094 0-2.423-2.401-4.424-3.014z" style="font-size:907.294px;font-family:Haettenschweiler;-inkscape-font-specification:&quot;Haettenschweiler, Normal&quot;;text-align:center;text-anchor:middle;fill:maroon;stroke-width:35.7201"/><path d="M913 706.191v76.407c.119.072.205.146.324.22 1.765 1.083 2.282 3.014 4.33 3.014.965 0 1.177-.966 1.79-1.695.612-.73 1.317-.917 1.882-1.694.989-1.318 1.53-2.826 3.201-2.826 1.295 0 1.813.967 2.73 1.885 1.554 1.554 2.779 2.046 4.427 3.482 1.67 1.46 2.871 2.543 5.084 2.543 1.318 0 1.693-1.507 3.011-1.507 1.67 0 2.19 1.436 3.485 2.543.823.706 1.67 1.057 2.166 2.07 2.307 2.306 3.294 4.99 6.496 4.99 2.424 0 3.624-1.412 6.049-1.412h1.74c3.248 0 4.308 3.084 7.556 3.484l5.366-.943h2.236c2.683 0 4.167.73 6.803 1.13 3.978.636 6.66 1.202 9.508 4.05 1.765 1.765 2.213 3.2 3.86 5.084 1.012 1.176 2.097 1.364 3.108 2.54 1.648 1.884 2.401 3.06 4.143 4.801.847.848.964 2.262 2.164 2.262.541 0 .565-.66.941-1.037.847-.848 1.46-1.6 2.66-1.6h2.872c.588 0 .94-.189 1.529-.189 1.53 0 2.143 1.365 2.826 2.73.988 2 1.317 3.273 2.07 5.368 1.271 3.53 2.212 5.507 2.918 9.226.707 3.719.801 5.814 1.602 9.51.305 1.435-.052 2.399.658 3.67.8 1.46 2.024 1.624 3.295 2.73.824.707 1.154 1.389 2.166 1.883 2.235 1.106 3.671 1.602 6.143 1.602 2.777 0 4.33.093 7.107.093 3.625 0 5.156 2.424 8.404 4.047 1.766.871 2.965.848 4.895 1.319 2.282.565 3.836.189 5.932 1.224 2.118 1.06 2.448 2.871 4.332 4.33.752.565 1.46.425 2.353.754 1.883.707 2.305 2.26 3.2 4.05 1.717 3.459 2.165 5.647 3.107 9.413.681 2.801.8 4.52 1.883 7.156.965 2.354 2.449 3.531 2.449 6.096v2.4c0 2.802.894 4.307 1.506 7.038.588 2.612.446 4.19.752 6.873.518 4.448 1.318 7.037 1.318 11.486.424 1.765.848 2.778.848 4.59v2.754l.283 1.129c.729-.424.752-1.506 1.6-1.506 1.13 0 1.694.658 2.824.658.028.142.187.212.187.377 0 1.224-1.6 1.507-1.6 2.73 0 1.248 1.764 1.012 2.635 1.883 1.389 1.39 1.742 2.543 2.637 4.332 1.271 2.542 1.766 4.12 2.166 6.873.824 5.625 2.164 8.78 2.164 14.475v2.47c-.093.965-.281 1.483-.281 2.448 0 1.177 1.6 1.366 1.6 2.543 0 .753-.942.942-.942 1.695 0 1.789 1.508 2.541 1.508 4.33 0 .824-.283 1.294-.283 2.117 0 1.648.707 2.52 1.13 4.096.518 1.906.966 3.202 2.543 4.426 1.389 1.059 2.565 1.035 3.954 2.07.028-.212.093-.329.093-.54 0-2.849-1.414-4.356-1.414-7.204v-1.105c1.318.423 2.12.47 3.508.47h2.024c1.835 0 3.53.753 3.978 2.541-2.024 1.012-1.083 4.026-3.201 4.52-1.93.447-3.86.353-4.613 2.166l2.447 7.814c1.364 2.048 2.096 3.201 3.39 5.272 1.342 2.165 1.011 3.86 1.317 6.402.377 3.013 1.225 4.589 1.225 7.602v2.496c0 4.472 1.128 6.965 1.128 11.437 0 2.66-.035 4.167-.035 6.826 0 3.578-.966 5.578-2.236 8.92-1.012 2.684-.824 4.521-2.354 6.97-2.4 3.86-3.389 6.26-5.648 10.167-1.083 1.883-1.505 3.577-3.389 4.707-.659 1.13-.895 2.33-2.166 2.637-1.718.423-3.458-1.13-4.517.283-2.26 3.013-4.048 4.424-6.309 7.438 3.225 1.059 5.131 1.575 7.908 3.482 1.577 1.083 1.272 2.778 2.637 4.143-.163.047-.188.283-.377.283-.847 0-1.107-.824-1.695-1.412-1.365-1.365-2.4-2.448-4.354-2.448-1.012 0-1.577-.093-2.59-.093-.988 0-1.506-.564-2.283-1.13-.166.33-.281.566-.281.942 0 1.718.281 2.706.281 4.424 0 2.377-1.883 3.247-3.107 5.272-.383.63-.718 1.214-1.022 1.769 1.154.283 2.01.09 3.188.303 1.436.258 1.766 1.506 2.92 2.353 1.412 1.059 2.352 1.506 3.953 2.354 2.188 1.153 3.083 3.011 5.554 3.011 2.825 0 3.932-2.142 6.686-2.824.282 1.695.564 2.92 1.977 3.862 1.977 1.318 3.625.635 5.931 1.318 2.66.776 3.531 2.494 5.461 4.424.941.941 1.576 1.883 2.918 1.883.988 0 1.012-1.247 1.506-2.07.73-1.201 1.93-1.108 3.201-1.696 1.953-.918 2.732-2.213 3.862-4.049.776-1.27.658-2.54 1.882-3.389.965-.659 1.764-.752 2.635-1.505 1.436-1.272 1.954-3.108 3.885-3.108h2.4c.965 0 1.506.142 2.471.283 0 2.707 2.283 4.801 4.99 4.801 1.718 0 2.826-.02 4.332-.847 1.507-.824 2.048-2.26 3.766-2.26.589 0 .917.118 1.506.19l2.73-.66c.87.423.964 1.6 1.93 1.6 3.13 0 4.637-2.165 7.768-2.165.54 0 .518.73.847 1.13 1.224 1.413 2 2.825 3.86 2.825 1.341 0 2.095-.284 3.437-.284.871 0 1.364.188 2.234.188h3.438c3.225 0 4.073 3.955 7.297 3.955.87 0 1.363.166 2.234.19.471.517.754.822 1.319 1.246 1.412.02 2.189-.02 3.601-.02 1.883 0 2.379 1.789 3.932 2.824 2.236 1.483 4 1.694 6.683 1.694 1.413 0 2.19-.188 3.602-.188h4.306c0-.141.098-.212.098-.353 0-2.166-2.07-3.036-2.07-5.201 0-2.119 2.542-2.19 4.142-3.579 2.024-1.765 2.47-3.553 3.2-6.119 1.247-4.355 3.602-6.19 4.709-10.639l.377-.093c.4.21.704.377 1.175.377 4.45 0 6.544-3.108 10.993-3.108h2.494c2.849 0 4.45.895 6.992 2.166 1.036.518 1.458 1.506 2.635 1.506 1.2 0 1.412-1.294 2.353-2 1.177 0 1.814.022 2.99.022 1.083 0 1.672.377 2.754.377v.869c0 1.765-.378 2.801-1.13 4.402-.355.777-1.178.965-1.413 1.79-.28.988.072 1.67-.28 2.636-.565 1.506-3.106 1.13-3.106 2.73 0 2.189 1.248 3.294 2.73 4.895 1.342 1.46 2.188 3.014 4.19 3.014 2.118 0 1.552-3.014 3.058-4.52.635-.636 1.342-.752 2.26-.752 1.318 0 1.365 1.6 2.166 2.635 2.071 2.683 3.013 4.708 6.025 6.215.941.47 1.719.257 2.637.752.894.494.754 1.46 1.225 2.355 1.106 2.048 1.787 3.2 3.011 5.178 1.671 2.683 2.638 4.402 5.18 6.308 1.718 1.271 3.2 1.247 5.178 2.07 3.672 1.53 5.318 3.671 7.342 7.155.328 2.095 2.707 2.214 4.802 2.45.942.092 1.435.564 2.377.564 1.036 0 1.625-.022 2.66-.022v3.438c0 1.46-1.72 1.576-2.873 2.424-2.425 1.812-4.048 2.447-6.59 4.142.8 1.2 1.625 2.072 3.061 2.072 2.283 0 3.319-1.79 5.602-1.79.918 0 1.246.942 1.6 1.79.847 1.953 1.6 2.941 2.448 4.895 1.2 2.73 1.413 4.449 1.79 7.414.423 0 .681.02 1.105.02 5.555 0 8.45-1.672 13.863-3.295 1.883-.566 2.825-1.317 4.754-1.317 1.742 0 2.4 1.34 3.906 2.164 2.637 1.46 4.92 1.696 6.403 4.332 1.412 2.519 1.437 4.401 2.543 7.06 1.06 0 1.648.022 2.707.022 4.095 0 5.389-4.543 9.484-4.543 3.53 0 4.144 4.801 7.674 4.801 3.13 0 4.494-2.637 7.625-2.637 3.883 0 4.591 5.272 8.475 5.272 1.623 0 2.047-1.553 3.388-2.447 2.708-1.79 4.332-2.73 6.686-5.084.141 0 .21.093.353.093 2.8 0 3.956-2.447 6.756-2.447 2.425 0 3.765.565 6.19.565 3.295 0 5.13.091 8.425.091 2.754 0 3.744-2.21 6.332-3.105 2.449-.846 4.068-1.11 6.499-1.691V887.336c-1.15-.025-2.24-.234-3.477.268-3.271 1.341-4.615 3.106-7.156 5.648-1.13 1.13-1.624 2.541-3.201 2.541-2.707 0-3.767-1.952-6.403-2.635-3.2-.824-5.79-.377-8.002-2.824-.211.847-.728 1.6-1.6 1.6-1.647 0-1.837-2.448-3.484-2.448-2.166 0-3.295 1.225-5.46 1.225-1.954 0-2.307-2.071-3.39-3.672-1.364-2.001-3.013-3.036-3.013-5.46 0-1.578 1.296-2.284 2.543-3.202 1.318-.988 1.881-1.812 3.2-2.824 1.694-1.295 1.885-2.801 2.825-4.707.99-2.001 2.07-3.132 2.07-5.367 0-2.049-.035-3.602-1.411-5.084-.87-.942-1.811-.965-3.012-1.413-1.79-.659-2.638-1.412-4.332-2.26-2.142-1.058-3.484-1.482-5.461-2.824-1.272-.87-1.389-2.212-2.824-2.73-.919-.33-1.553.07-2.541 0-1.601-.118-2.447-.825-3.766-1.695-1.906-1.271-2.284-2.895-3.39-4.895-1.906-3.39-3.72-5.509-7.438-6.592-2.378-.682-4.025-.07-6.402-.752-1.177-.33-1.529-1.247-2.635-1.789-1.601-.8-2.614-1.037-4.332-1.508-1.2 0-2.07-.187-3.272-.187-1.836 0-2.848-.283-4.683-.283-3.13 0-4.919.47-8.05.47-1.812 0-2.071-1.975-3.577-3.011-2.542-1.742-4.284-2.237-7.25-3.014-5.084-1.318-8.568-1.812-12.145-5.648-4.59-4.896-7.837-6.803-12.615-11.58-3.554-3.554-7.25-5.486-7.25-10.452 0-1.6 1.412-2.259 1.412-3.859 0-1.012-1.365-.895-2.353-1.13-1.718-.425-2.708-.777-4.332-1.413-1.648-.66-2.59-1.152-4.33-1.6-1.225-.306-2.166 0-3.202-.753-1.435-1.036.037-2.965-.845-4.518-.989-1.765-3.085-1.27-4.426-2.73-1.271-1.365-1.035-3.862-2.918-3.862-1.177 0-1.65 1.037-2.826 1.037-1.46 0-2.117-1.13-3.577-1.13-.612 0-.893.47-1.505.47-2.66 0-3.461-3.012-6.121-3.012-1.46 0-2.094.916-3.483 1.317-2.659.753-4.284 1.013-6.684 2.45l-1.13-.849-.848-.283h-1.129v1.037l1.506 5.742-.098.377c-2.613-.212-3.766-1.553-6.119-2.73-4.072-2.024-5.931-3.978-10.168-5.461-3.2-1.13-4.897-2.164-8.004-3.576-1.789-.8-2.847-1.319-4.8-1.695-1.389-.26-3.014-.66-3.014-2.073 0-1.412 1.508-1.67 2.449-2.728-1.742-1.154-2.895-1.507-4.613-2.637-.966-.636-1.39-1.508-2.543-1.508-1.93 0-2.754 1.248-4.614 1.79-1.717.493-2.73.635-4.52.847l-.14.754v2.447h-2.187c-1.2 0-1.837-.47-3.037-.47-1.177 0-.494 1.93-1.412 2.636-1.554 1.2-3.06.754-5.038.754-1.67 0-1.79-1.954-3.06-3.014-1.153-.965-2.26-.941-3.766-.941-.776 0-.894.87-1.318 1.506-.424.635-1.153.566-1.93.566-.683 0-1.058-.19-1.74-.19-2.636 0-4.143.19-6.78.284-.259 1.648-2.024 2.07-3.671 2.07-1.036 0-1.601-.187-2.637-.187-2.236 0-2.87 2.095-4.517 3.578-1.272-.941-1.885-1.743-2.827-3.014-.706-.941-1.153-1.976-2.353-1.976-.447 0-.705.187-1.152.187h-2.33l-1.131-.281c-1.2.283-1.625 1.316-2.825 1.316-1.294 0-1.34-1.693-2.54-2.164-1.977-.776-3.297-.778-5.274-1.508-2.236-.823-3.107-1.999-5.178-3.199-.354.848-.47 1.435-.47 2.377v3.365c-1.813 1.813-3.508 2.354-6.026 2.354-1.765 0-2.706-.612-4.424-1.035-1.742-.424-2.92-.541-4.332-1.6-1.482-1.106-1.882-2.38-3.482-3.297-.635 1.577-1.014 3.485-2.733 3.485-3.153 0-4.47-2.73-7.625-2.73-1.177 0-1.46 1.505-2.636 1.505-1.577 0-2.377-.775-3.86-1.316-1.13-.424-1.976-.19-3.011-.754-.8-.448-.92-1.225-1.696-1.696-1.318-.824-2.472-.706-3.484-1.882-.612-.707-.516-1.459-1.223-2.07-1.694-1.484-3.224-1.414-5.084-2.637-1.765-1.177-1.741-3.32-3.765-3.955-2.213-.707-4.215.306-5.745-1.413-.988-1.13-.33-2.306-.754-3.765-.587-2.024-1.082-3.202-1.082-5.297v-1.647l-2.683-.021-5.084.658-.377-.092c-.847 2.59-1.81 5.272-4.518 5.272-1.364 0-2.167-.471-3.296-1.225-1.648-2.212-3.437-2.802-6.12-3.578-2.4-.706-3.389-1.883-5.648-2.824-4.802-2.001-7.413-4.33-12.615-4.33-.683 0-.682.847-1.035 1.412-.424.682-.85 1.036-1.414 1.601-.565.565-.682 1.506-1.506 1.506-2.895 0-3.884-3.013-6.78-3.013 0-1.107.03-1.741.03-2.848 0-1.318-1.296-1.718-2.38-2.424-2.259-1.506-3.977-1.742-6.025-3.578-1.036.776-.963 2.447-2.258 2.447-2.236 0-4.731-.07-5.273-2.26-.33-1.317-.706-2.21-1.789-3.011-1.036-.753-2.637-.684-2.637-1.979 0-.918.377-1.435.377-2.353 0-.8-.753-1.106-1.412-1.506-1.483-.918-2.611-1.225-4.377-1.225-1.247 0-1.906.471-3.154.471-2.165 0-2.496-2.424-4.426-3.389-1.812-.894-3.13-.8-4.894-1.789-1.366-.753-1.625-1.905-2.825-2.918-2.024-1.718-4.19-.635-6.496-1.882-2.59-1.39-3.153-4.52-6.119-4.52-1.083 0-1.247 1.248-2.26 1.602-1.576.54-2.824.234-4.142 1.222-2.189 1.624-2.19 3.93-4.426 5.555h-1.883c-3.483-.87-5.86-.87-8.756-2.918-.659-.47-.563-1.224-1.129-1.79-1.035-1.035-2.189-.634-3.578-1.034-1.293-.377-2.023-.942-3.388-.942-.706 0-.826.942-1.532.942h-2.4c-3.248 0-4.99-1.319-8.238-1.319h-1.836c-1.724 0-2.19-2.04-3.551-2.627zm622.877 205.442v221.004c.65.045 1.319.047 2.018.318 1.6.635 2.117 2.26 3.859 2.26.989 0 1.553-.283 2.54-.283 1.413 0 2.12.754 3.532.754 1.389 0 1.178-1.86 1.742-3.108.45-.965.92-1.46 1.602-2.26 1.53-1.765 3.34-1.671 5.459-2.73 2.047-.8 3.32-1.06 5.367-1.695 1.883-.589 2.187-2.26 3.86-3.295 1.741-1.083 3.035-1.27 4.613-2.541 3.648-2.966 4.637-5.649 7.156-9.698 1.004-1.626 2.489-2.04 4.088-2.464l-45.836-196.262zm214.379 185.035-12.227 60.02c.391.395.668.784 1.155 1.214 1.67 1.483 3.06 2 4.142 3.953.8 1.436.66 3.579 2.307 3.579 1.93 0 2.917-.848 4.847-.848 3.578 0 5.038 2.897 7.157 5.744 1.247 1.672 2.048 3.483 4.142 3.483 1.483 0 2.143-1.2 2.918-2.448 1.013-1.648 1.624-2.589 2.635-4.236 1.202-1.953 2.31-3.672 4.615-3.672 2.19 0 2.896 2.447 5.084 2.447 1.248 0 1.647-1.035 2.635-1.789 1.06-.824 2.45-1.105 2.45-2.447 0-.917-.286-1.435-.286-2.353 0-1.06.565-1.602.565-2.66 0-.872-.053-1.647-.098-2.518.518-1.883 1.601-2.803 1.601-4.756 0-1.413-1.224-2.023-1.224-3.436 0-1.083.964-1.435 1.506-2.353.682-1.13.469-2.19 1.507-3.014.826-.65 1.676-1.088 2.266-1.695.286-.294.652-.528.652-1.035 0-.8-.285-1.27-.285-2.07 0-2.59 1.838-3.674 3.39-5.745-.964-.847-2.118-.328-3.107-1.129-.385-.31-.443-.713-.65-1.068-.639-1.097-.823-2.335-1.232-3.828-.565-2.048-1.531-2.965-2.543-4.801-.684-1.224-.565-3.014-1.977-3.014-1.225 0-1.413 1.696-2.637 1.696-.24 0-.349-.117-.564-.188.07-.965 1.035-1.295 1.035-2.26 0-1.012-1.224-1.036-1.976-1.695-2.707-2.354-7.062-1.813-7.344-5.367h-1.953c-3.954 0-5.98-1.952-9.346-4.047-1.623-1.012-2.965-.99-4.33-2.355-.941-.942-.917-1.953-1.883-2.918-.494.494-.61.94-1.035 1.505-.541-.423-.848-.94-.848-1.646 0-.588.47-.87.47-1.459 0-.588-.801-.518-1.32-.754-.076-.035-.14-.01-.214-.037z" style="fill:red;stroke-width:.359406"/><path d="m904.666 702.98-6.592 2.543c-1.718-.423-2.47-1.601-4.236-1.601-1.695 0-2.377 1.176-3.86 1.976-2.259 1.225-3.907 1.319-6.496 1.319v4.78c0 2.259-1.858 3.01-2.918 5.01-1.977 3.743-3.39 5.722-4.709 9.7-1.036 3.107-2.4 4.588-3.294 7.719-.754 2.589-.464 4.106-.91 6.812 2.684.463 5.303.713 8.537 1.85 1.883.66 2.8 1.412 4.613 2.26 6.402 3.013 9.956 4.92 16.476 7.627 2.048.847 3.719 1.294 4.707 3.295 1.6 3.2 1.176 5.388 1.6 8.943.33 2.8 1.414 4.236 1.414 7.037 0 .847-.072 1.342-.094 2.19 0 1.247-.052 1.977-.052 3.224 0 2.52 2 3.623 4.148 4.934V706.19c-.2-.086-.268-.386-.521-.386-.612 0-.94.235-1.506.47l-6.307-3.295zm642.746 156.377c-3.484.683-5.624-.07-8.85 1.319-.893.377-.94 1.223-1.6 1.976-1.789 2.048-2.542 3.39-3.767 5.838-1.695 3.413-1.79 5.649-2.543 9.32-.564 2.801-2.023 5.555-4.894 5.555-3.036 0-3.672-3.648-4.049-6.683-.307-2.566-1.011-3.884-1.506-6.403-.541-2.8-.847-4.614-2.54-6.873-.73-.988-1.625-1.154-2.731-1.695-2-.988-3.273-1.693-5.508-1.693-3.932 0-6.05 1.222-9.98 1.222-4.897 0-7.58-1.6-12.475-1.6-1.765 0-2.307 1.53-3.766 2.542-1.53 1.058-2.637 1.224-4.142 2.26-1.837 1.247-3.036 2.26-5.272 2.26-3.225 0-5.06-.472-8.285-.472-2.141 0-3.036 1.554-5.084 2.166-3.06.942-5.509 1.272-7.063 4.05-1.553 2.8-1.975 4.635-3.482 7.437-.635 1.2-.66 2.187-1.695 3.105-1.883 1.671-3.788 1.107-6.307 1.508-1.318.87-2.285 1.412-3.861 1.412-.871 0-1.317-.564-2.188-.564h-1.931c-2.307 0-3.319 1.318-5.579 1.883-.538.13-.949.119-1.418.109v260.684c.14-.034.23-.062.376-.098 3.483.07 5.46.187 8.943.187 3.718 0 7.25-2.542 7.25-6.261 0-1.365-.565-2.094-.565-3.46 0-.47-.07-.73 0-1.2 2.001.612 2.33 3.013 4.424 3.013 1.53 0 1.766-2.166 3.295-2.166 1.318 0 1.343 1.649 1.696 2.92.425 1.46 1.788 2.165 3.294 2.07 2.85-.212 4.307 1.412 7.155 1.412.8 0 1.06-.846 1.318-1.6.449-1.317.801-2.095 1.318-3.39 1.295.518 1.788 1.413 3.012 2.073 2.52 1.34 4.308 1.53 6.592 3.294 2.189 1.695 3.27 3.766 6.023 3.766 1.202 0 2.074-.33 3.11-.941 1.223-.093 1.88-.471 3.105-.471 1.036 0 1.602.283 2.637.283 3.037 0 4.496-1.482 7.531-1.976.59 1.412.684 2.354 1.602 3.578 1.06-.777.871-1.93 1.224-3.201.542-1.86 1.106-2.755 1.977-4.52 1.647-.895 2.54-1.883 4.424-1.883 2.848 0 3.861 2.918 6.709 2.918h1.93c1.2 0 .988 2.166 2.189 2.166 1.436 0 1.86-1.695 3.295-1.695.87 0 1.34.283 2.21.283 2.003 0 3.086-.848 5.087-.848 3.092 0 4.86 1.387 7.82 1.526v-1.768c-.342-.096-.67-.168-.996-.32-3.626-1.694-7.438-3.062-7.438-7.063 0-1.036.637-1.528.848-2.54.449-1.954.052-3.296.941-5.085 2.353.589 2.542 2.777 4.143 4.614.705.815 1.576.935 2.502 1V911.633l45.836 196.262c.76-.202 1.502-.358 2.314-.737 2.26-1.06 3.2-2.26 4.99-4.049 1.083-1.082.847-2.376 1.977-3.388 1.46-1.295 2.918-1.014 4.8-1.508 1.342-.353 1.907-1.412 3.296-1.412 1.412 0 1.74 1.341 2.824 2.26 1.624 1.388 2.612 2.26 4.613 2.92 1.53 1.53 2.755 2.54 4.897 2.54 2.377 0 2.966-2.518 3.861-4.707 1.506.495 2.564.116 3.953.846 1.506.8 1.365 2.496 2.824 3.39 2.189 1.366 3.695 1.767 6.12 2.638 1.671.588 3.201.02 4.425 1.318 1.27 1.365.871 2.87 1.79 4.517.988 1.766 2.635 2.26 4.66 2.26 1.577 0 2.33-1.035 3.906-1.035.989 0 1.225 1.012 2.072 1.506 1.906 1.106 3.295 1.412 5.508 1.412 1.389 0 1.953-1.225 3.342-1.225.468 0 .495.565.754.942.753 1.06 1.858 1.06 2.447 2.26-2.236 1.294-3.625 1.907-5.555 3.578-1.577 1.365-3.107 2.33-3.107 4.426 0 1.883 1.766 2.353 2.92 3.859 1.811 2.33 2.822 3.86 5.365 5.271 4.165 2.33 5.931 5.132 10.639 6.026 3.036.565 5.106-.352 7.814 1.13 5.06 2.802 7.25 7.061 13.016 7.061 1.624 0 2.541.072 4.166.094l5.603-.283 6.543.847c1.413 0 1.693-1.458 2.682-2.447 1.46-1.46 2.99-1.058 4.615-2.353.8 0 1.083.845 1.883.845.73 0 1.06-.564 1.789-.564 2.448 0 3.576 1.789 6.023 1.789.753 0 1.132-.47 1.885-.47 1.083 0 1.93.377 2.447 1.318.379.706.208 1.882 1.036 1.882 1.741 0 2.684-.47 4.425-.47 1.27 0 1.647 1.178 2.541 2.072 1.682 1.681 2.787 2.99 4.213 4.434l12.227-60.02c-1.437-.575-2.53-.336-4.117-.717-2.425-.588-3.083-2.541-4.33-4.707-.42.565-.613 1.225-1.319 1.225-1.059 0-1.154-1.272-1.695-2.166-.494-.8-1.223-1.13-1.223-2.07 0-.777 1.035-.92 1.035-1.696 0-.188-.097-.283-.097-.47h-1.506c.07-.73.117-1.153 0-1.883-.847.165-1.295.636-1.79 1.318l-.376-.094c-.19-.564-.333-.919-.469-1.508l-.847-4.847c.19-1.765 2.166-2.237 2.166-4.002 0-2.565-4.897-1.835-4.897-4.4 0-.707.098-1.13.098-1.837 0-1.082-.873-1.459-1.508-2.33-1.177-1.624-1.883-2.825-1.883-4.85 0-3.765 3.578-5.2 3.578-8.966v-2.023c0-1.625 1.508-2.049 2.166-3.555.468-1.106.377-1.907.377-3.108 0-1.365-.564-2.119-.564-3.484 0-2.424 2.424-3.082 4.52-4.33 2.847-1.695 4.284-2.918 6.778-5.084 4.19-3.647 6.024-6.826 6.872-12.334h.011c.161-1.035.564-1.764 0-2.635-.847-1.318-2.33-1.249-3.2-2.543-1.037-1.506-.918-2.729-1.507-4.424-.24-.73-.254-1.695-1.035-1.695-1.224 0-.659 2.541-1.883 2.541-1.506 0-2.308-.964-3.203-2.164-.846.635-1.128 1.341-1.412 2.354-.141.54-.09 1.318-.658 1.318-1.483 0-1.27-1.954-2.07-3.201-1.13-1.766-2.638-2.096-4.426-3.201-1.672-1.036-1.812-2.567-3.201-3.956-1.318-1.317-2.637-1.789-4.52-1.789-1.082 0-1.2 1.318-2.164 1.79-1.53.753-2.66.564-4.379.564-3.906 0-4.965-3.765-7.295-6.871-1.106.87-.99 2.07-1.13 3.482-.1 1.06-.16 2.448-1.223 2.448-1.742 0-3.133-1.06-3.58-2.73-.397-1.554-.051-2.636-.752-4.048-.468-.941-1.271-1.154-1.79-2.072-1.482.847-1.435 3.107-3.154 3.107-1.812 0-1.882-2.165-2.87-3.671-1.295.635-2.002 1.035-3.391 1.035-.847 0-1.318-.188-2.165-.188-1.882 0-2.352 2.354-4.236 2.354-1.788 0-2.235-1.931-2.918-3.578-.895-2.19-1.884-3.365-2.072-5.743-.209-2.66-1.907-4.073-4.236-5.367-1.72-.941-2.683-2.07-4.66-2.07-1.977 0-3.06.752-5.038.752-1.764 0-2.565-1.106-4.142-1.883-3.342-1.671-4-4-6.59-6.4-1.601-1.483-3.06-1.744-4.613-3.297-1.883-1.883-3.554-2.213-6.026-3.201-1.506-.59-1.906-1.742-3.2-2.73-1.154-.895-1.909-1.484-2.45-2.825l3.767-12.897h1.106c1.67 0 2.518.94 4.19.94h2.212c3.296 0 7.178-1.223 7.178-4.518 0-1.906-1.93-2.307-2.918-3.955l.285-2.07v-2.002c0-1.46-.467-2.283-.467-3.742 0-1.954 1.34-2.777 2.541-4.33 1.483-1.93 2.024-3.202 3.108-5.368.286-.572.333-1.081.572-1.554l-1.709-8.828c-.527-.324-.92-.828-1.594-.914-.894.07-1.388.28-2.283.28h-2.023c-2.048 0-2.73-1.74-4.637-2.446-5.225-1.954-7.533-4.308-12.24-7.25-1.79-1.107-2.589-2.729-4.707-2.729-2.236 0-3.248 1.693-5.485 1.693-4.283 0-6.685.094-10.968.094-1.177 0-1.86-.281-3.037-.281-3.53 0-4.8 3.576-8.33 3.576-2.214 0-3.296-1.6-4.473-3.482-1.412-2.284-1.766-3.86-2.26-6.496-.518-2.73-2.801-3.367-4.613-5.461-1.672-1.93-2.494-3.085-3.86-5.274-3.178-5.107-6.237-6.848-9.603-11.767-1.177-1.719-3.319-.848-5.367-.377-2.59.588-4.048 1.129-6.707 1.129h-1.743c-2.425 0-4.048.048-6.048-1.317-3.201-2.189-3.862-4.708-6.78-7.25-1.812-1.577-3.647-1.06-5.742-2.26z" style="fill:#c00000;stroke-width:.359406"/><path d="M198.224 448.127v-67.56h155.055V519.01q-44.523 30.346-78.857 41.421-34.112 10.854-81.071 10.854-57.814 0-94.362-19.714-36.328-19.714-56.485-58.7-19.936-38.985-19.936-89.488 0-53.162 21.93-92.369 21.929-39.428 64.237-59.807 33.004-15.727 88.824-15.727 53.827 0 80.407 9.747 26.803 9.746 44.302 30.346 17.72 20.379 26.58 51.833l-96.798 17.277q-5.98-18.385-20.379-28.131-14.176-9.746-36.327-9.746-33.004 0-52.719 23.036-19.492 22.816-19.492 72.433 0 52.719 19.714 75.313 19.936 22.593 55.377 22.593 16.834 0 32.118-4.873 15.284-4.873 34.999-16.613v-30.568zm214.419-207.11h268.91v69.333H513.207v51.61H669.37v66.232H513.207v64.015h173.219v73.54H412.643Zm315.205 162.587q0-79.52 44.301-123.822 44.302-44.302 123.38-44.302 81.072 0 124.93 43.637 43.858 43.416 43.858 121.83 0 56.927-19.27 93.475-19.05 36.327-55.378 56.706-36.105 20.157-90.153 20.157-54.934 0-91.04-17.499-35.884-17.499-58.256-55.377-22.372-37.877-22.372-94.805zm100.343.443q0 49.175 18.163 70.661 18.385 21.486 49.84 21.486 32.34 0 50.06-21.043t17.72-75.534q0-45.852-18.606-66.895-18.385-21.265-50.06-21.265-30.347 0-48.732 21.486-18.385 21.487-18.385 71.104zm291.503 161.7v-324.73h167.238q46.517 0 71.104 7.975 24.588 7.974 39.65 29.682 15.063 21.486 15.063 52.497 0 27.024-11.519 46.738-11.518 19.493-31.675 31.676-12.848 7.753-35.22 12.847 17.942 5.981 26.138 11.962 5.537 3.987 15.948 17.056 10.633 13.069 14.177 20.157l48.51 94.14h-113.412l-53.605-99.235q-10.189-19.27-18.163-25.03-10.854-7.531-24.588-7.531h-8.86v131.797zm100.786-193.154h42.308q6.867 0 26.58-4.43 9.969-1.993 16.17-10.19 6.425-8.195 6.425-18.827 0-15.727-9.968-24.145-9.968-8.417-37.435-8.417h-44.08zm405.802 75.534v-67.56h155.055V519.01q-44.523 30.346-78.857 41.421-34.112 10.854-81.072 10.854-57.813 0-94.362-19.714-36.327-19.714-56.484-58.7-19.936-38.985-19.936-89.488 0-53.162 21.93-92.369 21.929-39.428 64.237-59.807 33.004-15.727 88.824-15.727 53.826 0 80.407 9.747 26.803 9.746 44.302 30.346 17.72 20.379 26.58 51.833l-96.798 17.277q-5.98-18.385-20.379-28.131-14.176-9.746-36.327-9.746-33.005 0-52.719 23.036-19.492 22.816-19.492 72.433 0 52.719 19.714 75.313 19.935 22.593 55.377 22.593 16.834 0 32.118-4.873 15.284-4.873 34.998-16.613v-30.568zm218.627-207.11h100.565v324.73h-100.565zm372.354 271.126h-114.298l-15.727 53.605H1984.68l122.05-324.73h109.426l122.05 324.73h-104.994zm-21.043-70.218-35.884-116.734-35.663 116.734zm174.77-200.907h93.697l122.272 179.642V241.018h94.584v324.73h-94.584L2465.35 387.434v178.314h-94.362z" style="fill:red;stroke-width:35.7201"/></svg>